<svg width="80" height="80" viewBox="0 0 80 80" fill="none" xmlns="http://www.w3.org/2000/svg">
<g filter="url(#filter0_b_504_6150)">
<circle cx="40" cy="40" r="40" fill="#0067BC"/>
<circle cx="40" cy="40" r="38" stroke="white" stroke-width="4"/>
</g>
<path fill-rule="evenodd" clip-rule="evenodd" d="M21.6634 25.1378C20.9417 25.4051 20.4297 25.9441 20.1502 26.7307C20.0043 27.1414 20 27.5188 20 39.9896C20 52.6919 20.0016 52.8307 20.1585 53.2791C20.3704 53.8844 20.8403 54.4374 21.3869 54.7244L21.8324 54.9583L33.7236 54.9816C40.2638 54.9943 45.6931 54.9844 45.7888 54.9595C45.9658 54.9135 46.1996 54.5332 46.1996 54.2916C46.1996 54.2185 46.1134 54.0666 46.0082 53.954L45.8168 53.7493L34.0975 53.7488C26.647 53.7486 22.2776 53.7185 22.1019 53.6663C21.7884 53.5731 21.3755 53.155 21.2524 52.8059C21.1363 52.4767 21.1363 27.5071 21.2524 27.1779C21.3755 26.8288 21.7884 26.4107 22.1019 26.3175C22.4809 26.2049 57.4423 26.2049 57.8213 26.3175C58.1349 26.4107 58.5477 26.8288 58.6709 27.1779C58.7869 27.5071 58.7869 52.4767 58.6709 52.8059C58.5477 53.155 58.1349 53.5731 57.8213 53.6663C57.6683 53.7117 56.4982 53.7486 55.1998 53.7488L52.8547 53.7493L52.6851 53.9423C52.4432 54.2177 52.4612 54.6086 52.7259 54.8313C52.9321 55.0047 52.9873 55.0077 55.5135 54.9832L58.0908 54.9583L58.5364 54.7244C59.0646 54.447 59.5504 53.8895 59.7372 53.3464C59.8108 53.1323 59.9003 52.9215 59.9361 52.878C60.019 52.7772 60.0224 26.961 59.9396 27.0157C59.9057 27.0382 59.8185 26.8775 59.7458 26.6586C59.5635 26.1099 59.0712 25.5403 58.5364 25.2594L58.0908 25.0255L40.0786 25.007C22.9465 24.9894 22.0466 24.9958 21.6634 25.1378ZM20.0381 39.9919C20.0381 47.1228 20.0473 50.04 20.0585 46.4746C20.0697 42.9091 20.0697 37.0747 20.0585 33.5092C20.0473 29.9438 20.0381 32.861 20.0381 39.9919ZM25.0294 28.3914C24.313 28.5923 23.6778 29.1488 23.3489 29.8636C23.1914 30.2059 23.1581 30.4021 23.1591 30.987C23.16 31.5929 23.1905 31.7575 23.3692 32.1217C23.6343 32.6618 24.2607 33.2674 24.7318 33.439C25.5908 33.7519 26.6581 33.5161 27.2726 32.8775C27.8158 32.3129 27.9927 31.8373 27.9911 30.9453C27.99 30.3268 27.9586 30.132 27.8123 29.8368C27.3706 28.9456 26.651 28.427 25.7663 28.3625C25.4897 28.3423 25.158 28.3553 25.0294 28.3914ZM29.5484 29.1907C29.3145 29.4407 29.3042 29.7255 29.5186 30.0169L29.6802 30.2366H33.6817C37.3831 30.2366 37.6957 30.2256 37.8523 30.0901C38.1063 29.8701 38.0931 29.4269 37.8252 29.1805L37.6136 28.986H33.6767H29.7398L29.5484 29.1907ZM25.1853 29.6922C24.2062 30.0709 24.0101 31.4426 24.8441 32.0786C25.1996 32.3498 25.9634 32.365 26.286 32.1075C26.8439 31.6621 27.0018 31.0153 26.7098 30.3705C26.4248 29.7409 25.7897 29.4584 25.1853 29.6922ZM29.6973 31.7516C29.5313 31.8376 29.357 32.1468 29.357 32.3554C29.357 32.4159 29.4298 32.5642 29.5186 32.685L29.6802 32.9047H31.8189C33.8536 32.9047 33.9651 32.8967 34.1135 32.738C34.3457 32.4897 34.3214 32.0434 34.064 31.8269C33.8679 31.6619 33.768 31.6543 31.8612 31.6597C30.6562 31.6632 29.7978 31.6996 29.6973 31.7516ZM39.2208 33.3623C39.0064 33.4246 36.0414 34.772 32.632 36.3566C25.9931 39.4422 26.0827 39.3927 25.9688 40.0421C25.9414 40.1979 25.9414 40.4529 25.9688 40.6087C26.0711 41.1925 26.2981 41.3529 28.4027 42.3296C29.4862 42.8323 30.4774 43.2437 30.6055 43.2437C30.7346 43.2437 30.9082 43.1692 30.9945 43.0769C31.1802 42.8783 31.2003 42.4402 31.0328 42.2423C30.968 42.1657 30.0732 41.715 29.0444 41.2405C28.0155 40.7661 27.1737 40.356 27.1737 40.3293C27.1737 40.2478 39.4354 34.5932 39.7294 34.539C39.8804 34.5113 40.1787 34.5379 40.3922 34.5982C40.8181 34.7187 52.7495 40.2513 52.7495 40.3283C52.7495 40.3545 51.5653 40.9254 50.1179 41.5969L47.4862 42.8178L47.4472 41.744C47.4138 40.8238 47.3848 40.6366 47.2447 40.4353C46.6395 39.5657 43.9353 39.0521 39.9616 39.0521C35.8941 39.0521 33.2271 39.5751 32.6536 40.4852C32.4773 40.7649 32.476 40.7877 32.476 43.6552C32.476 46.4846 32.4796 46.551 32.6515 46.9155C32.7796 47.1873 32.9206 47.338 33.1748 47.4751L33.5227 47.6627H39.9616H46.4005L46.7484 47.4751C47.0026 47.338 47.1436 47.1873 47.2718 46.9155C47.4284 46.5832 47.4472 46.4203 47.4472 45.3917V44.24L48.0418 43.9503C48.3688 43.7909 48.6671 43.6605 48.7046 43.6605C48.7425 43.6605 48.7728 45.1784 48.7728 47.0735C48.7728 50.4727 48.7722 50.4866 48.6082 50.5422C48.3385 50.6337 47.8229 51.1824 47.6707 51.5398C47.5517 51.8192 47.5283 52.0989 47.5269 53.2638L47.5252 54.6544L47.7307 54.8272C47.9216 54.9878 48.0374 55 49.3716 55C50.7919 55 50.8093 54.9978 50.9986 54.7953C51.1855 54.5955 51.1899 54.5605 51.1866 53.3153C51.1843 52.47 51.148 51.9346 51.0787 51.7272C50.9268 51.2718 50.6011 50.8535 50.249 50.6614L49.9408 50.4933L49.9611 46.7701L49.9814 43.0469L51.7358 42.2299C53.5881 41.3675 53.7655 41.2403 53.9287 40.6578C54.0464 40.2378 53.92 39.7283 53.6197 39.4122C53.3846 39.1647 41.4059 33.5628 40.6788 33.3602C40.1467 33.2121 39.7367 33.2127 39.2208 33.3623ZM37.5054 40.3761C35.6277 40.5728 34.4683 40.7832 33.926 41.0255L33.6456 41.1507V42.4056V43.6605H39.9616H46.2776V42.4128C46.2776 40.9731 46.3506 41.101 45.3771 40.8354C44.1171 40.4918 43.0904 40.3958 40.3905 40.3689C38.9752 40.3549 37.6769 40.3581 37.5054 40.3761ZM33.662 45.6825L33.6846 46.3703H39.9616H46.2386L46.2612 45.6825L46.2839 44.9946H39.9616H33.6393L33.662 45.6825ZM48.8862 51.8696C48.7084 52.0597 48.6948 52.1336 48.6948 52.9118V53.7493H49.3649H50.035L50.0082 52.9082C49.9826 52.1061 49.9713 52.0577 49.7626 51.866C49.4767 51.6032 49.134 51.6045 48.8862 51.8696Z" fill="white"/>
<defs>
<filter id="filter0_b_504_6150" x="-12" y="-12" width="104" height="104" filterUnits="userSpaceOnUse" color-interpolation-filters="sRGB">
<feFlood flood-opacity="0" result="BackgroundImageFix"/>
<feGaussianBlur in="BackgroundImageFix" stdDeviation="6"/>
<feComposite in2="SourceAlpha" operator="in" result="effect1_backgroundBlur_504_6150"/>
<feBlend mode="normal" in="SourceGraphic" in2="effect1_backgroundBlur_504_6150" result="shape"/>
</filter>
</defs>
</svg>
