<svg width="42" height="42" viewBox="0 0 42 42" fill="none" xmlns="http://www.w3.org/2000/svg">
<g id="Group">
<g id="Group_2">
<g id="Group_3">
<path id="Vector" fill-rule="evenodd" clip-rule="evenodd" d="M27.3964 28.9218C27.3964 29.2738 27.1336 29.539 26.7804 29.539C26.4501 29.539 26.1849 29.2738 26.1849 28.9218C26.1849 28.6566 26.3404 28.4372 26.5815 28.348C26.7069 26.3481 26.2705 24.5689 25.5557 23.3176C25.669 23.3695 25.7955 23.3996 25.9318 23.3996C26.0149 23.3996 26.0969 23.3863 26.1765 23.3622C26.7105 24.4146 27.0637 25.8177 27.089 27.433C27.0902 27.5958 27.0902 27.7609 27.0878 27.9297C27.0842 28.0828 27.0769 28.2371 27.0685 28.3926C27.2674 28.5023 27.3988 28.7012 27.3988 28.9206L27.3964 28.9218Z" fill="#0064B0"/>
<path id="Vector_2" fill-rule="evenodd" clip-rule="evenodd" d="M20.2419 30.2368C20.2371 30.2139 20.2118 30.1971 20.2069 30.1754C20.2322 29.968 20.2503 29.739 20.2491 29.5148C20.2853 28.7192 20.1057 27.9694 19.7995 27.3594C19.4656 26.7302 18.9653 26.2733 18.3071 26.1395C18.2601 26.1275 18.2818 26.1226 18.2324 26.1106C18.1673 25.7984 18.1191 24.4254 18.8255 23.3163C18.6543 23.3115 18.5 23.2609 18.3686 23.1765C17.9781 23.8516 17.7321 24.8328 17.6779 25.7128C17.6695 25.8418 17.667 25.9695 17.667 26.0925C17.0547 26.1757 16.5412 26.6205 16.1735 27.2365C15.8275 27.8488 15.6105 28.636 15.5744 29.4328C15.5587 29.6835 15.5708 29.9511 15.6033 30.2139C15.531 30.2971 15.5129 30.4357 15.5792 30.5334C15.6407 30.7226 15.8625 30.8118 16.0264 30.7335C16.2157 30.672 16.288 30.4767 16.2072 30.3128C16.194 30.2489 16.1385 30.1922 16.1084 30.1549C16.0843 29.9331 16.0602 29.7137 16.0807 29.4846C16.1036 28.7373 16.2964 28.0453 16.6063 27.4848C16.9088 26.9942 17.309 26.6422 17.7659 26.5687C17.8358 26.5759 17.8997 26.5626 17.9684 26.5711C18.06 26.5759 18.1275 26.5843 18.2023 26.6121C18.6965 26.7121 19.0871 27.081 19.3462 27.5668C19.6356 28.0899 19.7754 28.759 19.7669 29.4798C19.7645 29.6823 19.7356 29.8692 19.7115 30.0777C19.5753 30.173 19.5415 30.3381 19.5958 30.4828C19.6741 30.6467 19.8742 30.7395 20.0635 30.678C20.2298 30.6214 20.3251 30.4213 20.2407 30.238L20.2419 30.2368Z" fill="#0064B0"/>
</g>
<path id="Vector_3" fill-rule="evenodd" clip-rule="evenodd" d="M38.6047 18.661C38.6047 9.59599 31.2563 2.24756 22.1913 2.24756C13.1263 2.24756 5.77783 9.59599 5.77783 18.661C5.77783 23.032 7.48716 27.0039 10.273 29.9464C11.2795 28.3275 14.1316 26.1167 18.8256 23.3176C18.7967 22.1291 18.3206 21.0562 17.3948 20.0967C15.8494 18.4573 15.6806 17.4555 16.8921 17.0891C16.6136 15.1592 16.8041 13.2015 17.4647 11.2197C17.4647 11.2197 15.6276 10.7171 11.9522 9.71533C11.9522 9.71533 15.366 8.83294 22.1901 7.06695C29.0141 8.83294 32.428 9.71533 32.428 9.71533L30.6379 10.2035V16.7793C30.838 16.8685 30.9778 17.0698 30.9778 17.3036C30.9778 17.6207 30.721 17.8774 30.404 17.8774C30.087 17.8774 29.8302 17.6207 29.8302 17.3036C29.8302 17.0698 29.97 16.8685 30.1701 16.7793V10.3313C28.0015 10.9232 26.9166 11.2197 26.9166 11.2197C27.5772 13.2015 27.7677 15.1592 27.4892 17.0891C28.6995 17.4555 28.5319 18.4573 26.9865 20.0967C26.0608 21.0562 25.5846 22.1291 25.5557 23.3176C30.2497 26.1179 33.1018 28.3275 34.1084 29.9464C36.8942 27.0051 38.6035 23.0332 38.6035 18.661H38.6047Z" fill="url(#paint0_linear_548_4865)"/>
</g>
<path id="Vector_4" fill-rule="evenodd" clip-rule="evenodd" d="M41.0685 27.0448C38.883 34.1726 32.945 39.8997 25.0951 41.4065C23.7631 41.6645 22.4371 41.7898 21.1292 41.7898C15.9963 41.7898 11.148 39.8708 7.44607 36.5907L5.28229 37.3116L0 39.0945L1.69728 33.7905L2.71468 30.5876C1.82385 28.8481 1.14518 26.9604 0.763051 24.9232C-1.42123 13.6594 5.96096 2.75612 17.2247 0.592333C18.4338 0.359681 19.6006 0.231903 20.7892 0.210205C20.2805 0.274094 19.7923 0.337983 19.3041 0.442857C9.26992 2.37399 2.71468 12.0682 4.64581 22.1024C5.7705 27.9778 9.58816 32.6658 14.5739 35.1478C14.8982 34.697 15.2526 34.3136 15.6347 33.999C16.5304 33.2601 17.5875 32.8924 18.8087 32.8924C19.6935 32.8924 20.6651 33.0853 21.7222 33.471C22.5504 33.7145 23.3954 33.8363 24.2585 33.8363C26.18 33.8363 28.1919 33.236 30.3135 32.051C30.6112 31.5544 31.1513 31.2626 31.7251 31.2626C31.7636 31.2626 31.8022 31.2638 31.8408 31.2663C32.2024 31.2795 32.5424 31.4169 32.8124 31.6387C33.0016 31.7942 33.1572 31.9931 33.262 32.2198C33.5164 32.7297 33.4947 33.3445 33.1981 33.8327C33.1764 33.8749 33.1342 33.8965 33.1138 33.9387C31.713 35.2539 29.0622 37.0572 25.159 37.6081C28.8079 37.3743 31.9264 35.8253 34.4723 32.9418C36.4456 31.1807 37.4208 28.7625 39.3508 26.8109C39.5617 26.6108 39.9909 26.4589 40.3682 26.4589C40.7455 26.4589 41.0794 26.6168 41.0697 27.0448H41.0685Z" fill="url(#paint1_linear_548_4865)"/>
</g>
<defs>
<linearGradient id="paint0_linear_548_4865" x1="36.6904" y1="8.30495" x2="9.79801" y2="27.1341" gradientUnits="userSpaceOnUse">
<stop stop-color="#4DC3F1"/>
<stop offset="1" stop-color="#0065B3"/>
</linearGradient>
<linearGradient id="paint1_linear_548_4865" x1="0" y1="20.9994" x2="41.0685" y2="20.9994" gradientUnits="userSpaceOnUse">
<stop stop-color="#0065B3"/>
<stop offset="1" stop-color="#4DC3F1"/>
</linearGradient>
</defs>
</svg>
