<svg width="15" height="16" viewBox="0 0 15 16" fill="none" xmlns="http://www.w3.org/2000/svg">
<path d="M14.5 11.5C14.4583 12.1875 14.125 12.6562 13.5 12.9062V15H14C14.3125 15.0208 14.4792 15.1875 14.5 15.5C14.4792 15.8125 14.3125 15.9792 14 16H2.5C1.9375 15.9792 1.46875 15.7812 1.09375 15.4062C0.71875 15.0312 0.520833 14.5625 0.5 14V2.5C0.520833 1.79167 0.760417 1.19792 1.21875 0.71875C1.69792 0.260417 2.29167 0.0208333 3 0H13C13.4167 0.0208333 13.7708 0.166667 14.0625 0.4375C14.3333 0.729167 14.4792 1.08333 14.5 1.5V11.5ZM1.5 2.5V12.2812C1.79167 12.0938 2.125 12 2.5 12H3.5V1H3C2.58333 1.02083 2.22917 1.16667 1.9375 1.4375C1.66667 1.72917 1.52083 2.08333 1.5 2.5ZM12.5 15V13H2.5C2.20833 13 1.96875 13.0938 1.78125 13.2812C1.59375 13.4688 1.5 13.7083 1.5 14C1.5 14.2917 1.59375 14.5312 1.78125 14.7188C1.96875 14.9062 2.20833 15 2.5 15H12.5ZM13 12C13.3125 11.9792 13.4792 11.8125 13.5 11.5V1.5C13.4792 1.1875 13.3125 1.02083 13 1H4.5V12H13ZM11.5 4C11.8125 4.02083 11.9792 4.1875 12 4.5C11.9792 4.8125 11.8125 4.97917 11.5 5H6.5C6.1875 4.97917 6.02083 4.8125 6 4.5C6.02083 4.1875 6.1875 4.02083 6.5 4H11.5ZM11.5 7C11.8125 7.02083 11.9792 7.1875 12 7.5C11.9792 7.8125 11.8125 7.97917 11.5 8H6.5C6.1875 7.97917 6.02083 7.8125 6 7.5C6.02083 7.1875 6.1875 7.02083 6.5 7H11.5Z" fill="#0067BC"/>
</svg>
