<svg width="1920" height="1169" viewBox="0 0 1920 1169" fill="none" xmlns="http://www.w3.org/2000/svg">
<rect y="0.105469" width="1920" height="1168.79" fill="#F3F7FB"/>
<mask id="mask0_174_3705" style="mask-type:alpha" maskUnits="userSpaceOnUse" x="0" y="0" width="1920" height="1169">
<rect y="0.105469" width="1920" height="1168.79" fill="#F3F7FB"/>
</mask>
<g mask="url(#mask0_174_3705)">
<path d="M-686.305 769.448C-955.733 769.448 -969.298 1045.87 -942.402 1184.09H2320.2C2550.57 1001.36 2904.66 543.154 2478.07 172.088C1944.83 -291.744 1534.37 63.1579 1453.68 284.532C1372.99 505.907 1088.83 660.518 853.784 463.741C618.736 266.963 239.853 273.991 57.4279 495.366C-124.997 716.74 -349.52 769.448 -686.305 769.448Z" fill="url(#paint0_linear_174_3705)"/>
<ellipse cx="1744.5" cy="194.745" rx="806.5" ry="551.638" fill="url(#paint1_radial_174_3705)" fill-opacity="0.14"/>
<path d="M2023.61 895.419L2023.61 895.422C2026.96 901.143 2026 907.611 2024.26 914.816C2024.02 915.812 2023.76 916.823 2023.5 917.846C2021.93 924.026 2020.24 930.643 2021.29 937.016C2023.22 948.828 2032.69 955.685 2043.3 961.395C2045.97 962.831 2048.75 964.209 2051.52 965.579C2051.76 965.697 2052 965.815 2052.23 965.933C2054.77 967.188 2057.31 968.439 2059.79 969.74C2065.23 972.589 2070.33 975.629 2074.52 979.314C2085.78 989.235 2090.48 1004.54 2091.16 1019.48C2092.84 1057.37 2068.75 1095.98 2031.7 1109.88L2031.7 1109.88C1994.63 1123.8 1947.34 1109.55 1928.21 1076.54C1925.65 1072.13 1923.57 1067.48 1921.46 1062.77C1920.49 1060.6 1919.51 1058.42 1918.48 1056.24C1915.24 1049.4 1911.5 1042.71 1905.83 1037.22C1896.27 1027.95 1883.41 1024.04 1870.44 1020.79C1868.65 1020.34 1866.86 1019.9 1865.08 1019.47C1853.79 1016.72 1842.68 1014.02 1833.22 1008.45C1811.25 995.515 1801.88 967.089 1809.66 943.497C1817.45 919.928 1840.3 902.086 1865.84 896.565L1865.84 896.565C1876.25 894.308 1887 893.885 1897.91 893.562C1898.54 893.543 1899.17 893.525 1899.8 893.506C1910.05 893.209 1920.43 892.907 1930.55 891.103L1931.2 890.988L1931.55 890.458C1938.29 880.331 1951.03 873.444 1964 872.208L1964 872.208C1981.26 870.556 1998.49 877.073 2013.3 886.232C2017.49 888.833 2021.39 891.602 2023.61 895.419Z" stroke="#0067BC" stroke-width="3"/>
<path d="M67.6932 111.705C67.7807 109.809 66.166 107.631 63.8952 108.123C55.2538 109.949 47.3531 115.51 41.5822 122.644C40.574 123.795 39.6726 125.049 38.8702 126.349C35.1289 132.041 32.6714 138.433 32.1409 144.625C32.0231 146.087 32.7987 147.114 33.8464 147.668C34.3115 149.553 36.145 150.987 38.3763 150.105C46.8209 146.77 55.7182 143.917 61.121 136.465C66.3574 129.254 67.2567 120.209 67.6932 111.705Z" fill="#DDE8FB"/>
<path d="M103.568 178.546C112.012 175.211 120.91 172.358 126.312 164.906C131.562 157.678 132.478 148.646 132.915 140.142C133.002 138.246 131.388 136.068 129.117 136.56C120.475 138.386 112.575 143.948 106.804 151.081C105.796 152.232 104.894 153.486 104.092 154.786C100.351 160.479 97.8931 166.87 97.3625 173.062C97.2448 174.524 98.0204 175.551 99.0681 176.105C99.5201 178.007 101.336 179.428 103.568 178.546Z" fill="#DDE8FB"/>
<path d="M175.827 44.4765C175.931 42.5923 174.299 40.4019 172.029 40.8943C163.387 42.7202 155.486 48.2818 149.716 55.4151C148.707 56.566 147.806 57.8203 147.003 59.1206C143.262 64.8128 140.805 71.2047 140.274 77.3963C140.156 78.8582 140.932 79.8855 141.98 80.4397C142.445 82.3247 144.278 83.7587 146.51 82.8766C154.954 79.541 163.852 76.6888 169.254 69.2366C174.491 62.0249 175.39 52.9802 175.827 44.4765Z" fill="#DDE8FB"/>
<path d="M155.437 119.222C151.695 124.914 149.238 131.306 148.707 137.498C148.589 138.96 149.365 139.987 150.413 140.541C150.878 142.426 152.711 143.86 154.943 142.978C163.387 139.643 172.285 136.79 177.687 129.338C182.937 122.11 183.853 113.078 184.29 104.574C184.377 102.678 182.763 100.5 180.492 100.992C171.85 102.818 163.95 108.38 158.179 115.513C157.144 116.697 156.239 117.922 155.437 119.222Z" fill="#DDE8FB"/>
<path d="M86.1463 70.5021C86.0286 71.9641 86.8041 72.9913 87.8518 73.5455C88.3169 75.4305 90.1503 76.8645 92.3817 75.9825C100.826 72.6468 109.724 69.7946 115.126 62.3425C120.376 55.1144 121.292 46.0821 121.729 37.5784C121.816 35.6818 120.202 33.504 117.931 33.9964C109.29 35.8223 101.389 41.3838 95.6178 48.5171C94.6096 49.668 93.7084 50.9224 92.9059 52.2226C89.1042 57.9225 86.6598 64.2981 86.1463 70.5021Z" fill="#DDE8FB"/>
<path d="M10.8397 154.076C10.9272 152.18 9.31244 150.002 7.04168 150.494C-1.59973 152.32 -9.5004 157.882 -15.2713 165.015C-16.2795 166.166 -17.1809 167.42 -17.9833 168.72C-21.7246 174.413 -24.1821 180.805 -24.7127 186.996C-24.8305 188.458 -24.0548 189.485 -23.0071 190.04C-22.5419 191.925 -20.7086 193.359 -18.4773 192.476C-10.0327 189.141 -1.13528 186.289 4.26752 178.836C9.50396 171.625 10.4032 162.58 10.8397 154.076Z" fill="#DDE8FB"/>
<path d="M91.5529 212.663C91.6403 210.766 90.0256 208.589 87.7548 209.081C79.1134 210.907 71.2127 216.468 65.4418 223.602C64.4336 224.753 63.5323 226.007 62.7298 227.307C58.9885 232.999 56.531 239.391 56.0005 245.583C55.8827 247.045 56.6582 248.072 57.706 248.626C58.1711 250.511 60.0045 251.945 62.2359 251.063C70.6804 247.727 79.5779 244.875 84.9807 237.423C90.2171 230.211 91.1164 221.167 91.5529 212.663Z" fill="#DDE8FB"/>
<path d="M27.9263 206.974C28.0138 205.077 26.3992 202.899 24.1284 203.392C15.487 205.217 7.58623 210.779 1.81534 217.912C0.807136 219.063 -0.0941213 220.318 -0.8966 221.618C-4.63785 227.31 -7.09534 233.702 -7.6259 239.894C-7.74368 241.356 -6.96818 242.383 -5.92042 242.937C-5.45531 244.822 -3.62187 246.256 -1.39049 245.374C7.05408 242.038 15.9515 239.186 21.3543 231.734C26.6038 224.506 27.4899 215.477 27.9263 206.974Z" fill="#DDE8FB"/>
<path d="M83.8134 151.598C65.2836 149.882 54.3841 171.347 51.4305 185.709C51.091 187.345 51.9824 188.431 53.2208 188.917C53.704 190.274 55.1309 191.335 56.8461 191.162C64.9381 190.356 72.1767 187.202 77.4193 181.129C83.9454 173.564 82.8028 164.559 86.5416 156.002C87.3672 154.1 85.9956 151.789 83.8134 151.598ZM78.4269 159.603C77.969 159.193 77.4022 158.885 76.782 158.745C77.4274 158.517 78.0807 158.346 78.7382 158.204C78.6344 158.671 78.5176 159.153 78.4269 159.603ZM72.0422 177.046C73.1663 175.515 74.0666 173.925 74.8338 172.263C75.0737 171.999 75.2622 171.697 75.4851 171.421C74.5839 173.552 73.4305 175.423 72.0422 177.046Z" fill="#DDE8FB"/>
<path d="M90.4807 131.881C90.9642 135.43 96.0372 135.269 97.0351 132.512C107.613 132.195 112.507 128.242 119.596 120.956C127.556 112.756 126.252 103.04 128.304 92.6657C128.731 90.4483 126.531 89.0317 124.506 89.0836C113.665 89.3904 106.598 94.4223 101.004 102.922C94.2796 113.129 88.8294 119.695 90.4807 131.881Z" fill="#DDE8FB"/>
</g>
<defs>
<linearGradient id="paint0_linear_174_3705" x1="863" y1="-54.9633" x2="863" y2="1184.09" gradientUnits="userSpaceOnUse">
<stop stop-color="#E7EEFB"/>
<stop offset="1" stop-color="#F3F5F9"/>
</linearGradient>
<radialGradient id="paint1_radial_174_3705" cx="0" cy="0" r="1" gradientUnits="userSpaceOnUse" gradientTransform="translate(1744.5 194.745) rotate(90) scale(551.638 806.5)">
<stop stop-color="#0D619F"/>
<stop offset="1" stop-color="#D9D9D9" stop-opacity="0"/>
</radialGradient>
</defs>
</svg>
