<svg width="207" height="63" viewBox="0 0 207 63" fill="none" xmlns="http://www.w3.org/2000/svg">
<path d="M4.79541 56.6494C7.4418 52.7596 12.0481 47.5114 18.8028 41.8259C22.17 38.9775 26.0446 35.9553 30.2989 32.866C34.5695 29.7731 39.2689 26.6025 44.5427 23.7797C47.1756 22.3534 49.9542 21.0215 52.8814 19.8622C55.8008 18.6731 58.8806 17.7014 62.0794 16.9875C65.2744 16.2588 68.5925 15.8029 71.9378 15.7827C75.2878 15.7142 78.6411 16.055 81.9282 16.8046C82.1111 16.8436 82.2816 16.9011 82.4644 16.94C82.3485 17.0915 82.2124 17.2316 82.1128 17.3795C79.923 20.2392 78.2795 23.4055 77.2492 26.7376C76.215 30.0549 75.668 33.5182 75.8665 36.9923C76.0977 40.4593 76.9888 43.9401 78.7467 47.1686C80.5132 50.3637 83.1052 53.3471 86.5593 55.4641C88.2124 56.5703 90.1285 57.4929 92.2476 58.1346C94.3628 58.7614 96.7791 59.0859 99.2233 58.7892C104.177 58.1814 108.175 55.3688 110.582 52.0832C113.084 48.6981 113.751 44.7038 113.358 41.1459C112.97 37.5397 111.633 34.2035 109.853 31.1534C108.052 28.092 105.689 25.3267 102.956 22.9262C99.5453 19.9164 95.5449 17.4927 91.231 15.721C92.009 15.0623 92.8275 14.4263 93.7145 13.8542C98.8542 10.3193 104.939 8.1555 110.97 7.04443C117.018 5.9298 123.021 5.83445 128.564 6.35995C134.094 6.90394 139.17 8.02044 143.585 9.51769C148.02 11.0263 151.95 12.9134 155.418 14.8222C162.417 18.6105 167.617 22.6496 171.743 26.15C175.815 29.7095 178.846 32.7864 181.035 35.4161C183.285 38.0166 184.841 40.0746 185.995 41.6524C187.01 42.961 187.659 43.9236 188.188 44.6283C187.75 44.4715 187.332 44.3261 186.91 44.1658C183.251 42.8507 179.932 41.7137 177.107 40.8159C171.457 39.0203 167.816 38.1743 167.508 38.7147C167.2 39.2551 170.279 41.0597 175.526 43.5585C178.147 44.8005 181.299 46.2262 184.838 47.7411C185.284 47.9277 185.73 48.1143 186.18 48.3159C186.683 48.5216 187.242 48.7465 187.961 48.9209C188.327 48.9988 188.713 49.0881 189.169 49.1147C189.645 49.1528 190.212 49.1396 190.722 49.0439C191.763 48.8641 192.739 48.3672 193.469 47.6559C194.76 46.3173 194.997 45.2403 195.415 44.392C195.817 43.4841 196.215 42.5612 196.626 41.6198C203.098 26.6426 207.31 14.193 206.002 13.8159C204.699 13.4536 198.395 25.3026 191.924 40.2799C191.647 40.9397 191.366 41.5846 191.089 42.2444C190.804 41.5494 190.423 40.7494 189.86 39.7838C188.912 38.0033 187.485 35.7121 185.303 32.8443C183.166 29.9508 180.114 26.5946 175.927 22.7289C171.687 18.9222 166.292 14.5946 158.861 10.4746C155.162 8.4111 150.981 6.35787 146.068 4.66979C141.138 2.98527 135.603 1.76391 129.486 1.15851C123.374 0.568033 116.702 0.683058 109.883 1.95036C103.08 3.2141 96.033 5.72969 90.0258 9.91131C88.346 11.0192 86.7736 12.3403 85.318 13.7778C84.595 13.5886 83.8923 13.4107 83.1608 13.2548C79.4705 12.4828 75.6729 12.16 71.9471 12.3105C68.2259 12.4128 64.5888 12.9698 61.1519 13.8302C57.6908 14.6643 54.4258 15.7869 51.3664 17.1012C48.2828 18.3893 45.4171 19.8506 42.7258 21.3843C37.3268 24.4552 32.6049 27.8043 28.3935 31.0577C24.1859 34.3261 20.4118 37.4684 17.0874 40.4809C10.4549 46.5025 6.0238 52.091 3.68018 56.2145C2.49008 58.2724 1.74499 59.9177 1.29937 61.056C0.890334 62.202 0.720074 62.807 0.829802 62.8304C1.11852 62.8778 2.12489 60.513 4.79541 56.6494ZM87.1334 20.0065C87.4687 19.5705 87.8118 19.1644 88.1712 18.7547C92.3761 20.4398 96.2551 22.7953 99.4751 25.7363C101.857 27.9138 103.885 30.3894 105.417 33.0836C106.932 35.7813 108.022 38.6983 108.284 41.6222C108.542 44.5313 107.924 47.458 106.161 49.7672C104.421 52.1026 101.588 53.888 98.7124 54.1844C95.8605 54.507 92.6713 53.4048 90.0686 51.6383C87.3633 49.9415 85.3628 47.5704 83.9638 44.9891C82.5734 42.3745 81.8583 39.502 81.6981 36.5716C81.5542 33.6376 82.0624 30.6875 82.9721 27.8864C83.8415 25.0625 85.2835 22.3818 87.1334 20.0065Z" fill="#D0DBE9"/>
</svg>
