<svg width="80" height="80" viewBox="0 0 80 80" fill="none" xmlns="http://www.w3.org/2000/svg">
<g filter="url(#filter0_b_504_6153)">
<circle cx="40" cy="40" r="40" fill="#0067BC"/>
<circle cx="40" cy="40" r="38" stroke="white" stroke-width="4"/>
</g>
<path fill-rule="evenodd" clip-rule="evenodd" d="M27.3163 25.7983C23.9349 26.963 22.3256 28.054 22.3256 29.1819C22.3256 29.6667 21.8023 30.3121 21.1628 30.6159L20 31.1687V42.5666C20 53.3389 20.0493 53.9922 20.8995 54.4673C22.26 55.2268 58.7098 55.1511 59.4419 54.3872C59.8442 53.9674 60 50.6426 60 42.487V31.1687L58.8372 30.6159C58.1977 30.3121 57.6744 29.674 57.6744 29.1979C57.6744 27.9788 56.087 26.9485 52.3958 25.7721C48.6795 24.5879 45.9647 24.7495 42.3544 26.37L40 27.4265L37.5828 26.3414C34.2405 24.8413 30.647 24.6515 27.3163 25.7983ZM28.3693 27.246C27.7279 27.4658 26.5242 28.0118 25.6949 28.4592L24.186 29.2731L24.1865 39.5737L24.187 49.8739H29.4191C33.8237 49.8739 35.0005 50.0423 36.8605 50.9386L39.0698 52.0034V40.473V28.9426L37.3256 28.0622C35.4065 27.0931 30.2019 26.6189 28.3693 27.246ZM43.3721 27.8215L40.9302 28.831V40.4172V52.0034L43.1395 50.9386C44.9995 50.0423 46.1763 49.8739 50.5814 49.8739H55.814V39.5708V29.2682L53.8372 28.2146C50.9777 26.6913 46.513 26.5238 43.3721 27.8215ZM21.3953 42.5943V53.0283L28.9535 52.9886C36.2251 52.9507 36.4498 52.9201 34.8837 52.1849C32.9893 51.2958 26.4898 51.1502 24.594 51.9544C22.4712 52.8551 22.3256 52.2024 22.3256 41.7692C22.3256 35.6869 22.1549 32.1602 21.8605 32.1602C21.5647 32.1602 21.3953 35.9616 21.3953 42.5943ZM28.4451 32.6761C26.5963 33.0929 25.6684 33.9053 26.3023 34.5523C26.9051 35.1676 31.1628 34.1092 31.1628 33.3438C31.1628 32.4975 30.2409 32.2708 28.4451 32.6761ZM45.6907 32.6605C43.2567 33.1783 42.7907 33.4623 42.7907 34.4266C42.7907 35.0458 43.1009 35.1074 44.5349 34.7731C46.4465 34.3276 50.1651 34.2451 52.2767 34.6018C53.8354 34.8653 54.4447 33.9204 53.1679 33.2196C51.846 32.4941 47.8702 32.1971 45.6907 32.6605ZM57.6744 41.7692C57.6744 52.199 57.5293 52.8512 55.406 51.9602C53.6 51.2021 47.5158 51.3375 45.1163 52.1893C43.0679 52.9167 43.1893 52.9332 50.814 52.9803L58.6047 53.0283V42.5943C58.6047 35.9616 58.4353 32.1602 58.1395 32.1602C57.8451 32.1602 57.6744 35.6869 57.6744 41.7692ZM32.093 33.3157C32.093 33.8966 35.1879 35.072 36.7177 35.072C37.6777 35.072 37.1907 33.7631 36.0247 33.2089C34.3698 32.4222 32.093 32.4839 32.093 33.3157ZM26.7167 37.732C25.373 38.8016 26.586 39.4281 28.9349 38.8773C30.2809 38.5619 31.5847 38.6502 33.6209 39.1947C35.5465 39.7091 36.594 39.7906 36.9191 39.4514C38.6712 37.6233 28.9181 35.9795 26.7167 37.732ZM44.6512 37.6999C43.7558 38.0368 42.9558 38.6754 42.873 39.119C42.6888 40.1066 42.9814 40.1139 46.3344 39.2025C48.0474 38.737 49.8758 38.5881 51.4735 38.7841C54.0633 39.1015 54.8144 38.4988 53.054 37.5155C51.8316 36.8332 46.6526 36.9463 44.6512 37.6999ZM26.8605 42.3594C25.2558 43.396 25.9577 43.9517 28.4884 43.6483C29.8316 43.4872 31.7674 43.5848 32.7907 43.8643C36.493 44.8762 37.2093 44.9276 37.2093 44.1832C37.2093 43.7954 36.634 43.1941 35.9302 42.8466C34.2498 42.0172 27.9163 41.677 26.8605 42.3594ZM44.8837 42.6025C43.8605 42.9903 42.9712 43.3111 42.907 43.3149C42.4563 43.3431 42.914 44.7767 43.3721 44.7709C44.8595 44.7519 48.1395 43.3892 48.1395 42.7898C48.1395 41.8469 47.0437 41.7833 44.8837 42.6025ZM49.0693 42.3526C48.9107 42.62 49.3307 43.0568 50.0023 43.3232C51.5591 43.9405 53.9535 43.9507 53.9535 43.3392C53.9535 42.1322 49.7079 41.2742 49.0693 42.3526Z" fill="white"/>
<defs>
<filter id="filter0_b_504_6153" x="-12" y="-12" width="104" height="104" filterUnits="userSpaceOnUse" color-interpolation-filters="sRGB">
<feFlood flood-opacity="0" result="BackgroundImageFix"/>
<feGaussianBlur in="BackgroundImageFix" stdDeviation="6"/>
<feComposite in2="SourceAlpha" operator="in" result="effect1_backgroundBlur_504_6153"/>
<feBlend mode="normal" in="SourceGraphic" in2="effect1_backgroundBlur_504_6153" result="shape"/>
</filter>
</defs>
</svg>
