<svg width="24" height="25" viewBox="0 0 24 25" fill="none" xmlns="http://www.w3.org/2000/svg">
<g id="Component 41">
<path id="Vector" d="M19.0001 14.4755V17.4755H22.0001V19.4755H18.9991L19.0001 22.4755H17.0001L16.9991 19.4755H14.0001V17.4755H17.0001V14.4755H19.0001ZM20.2426 5.23295C22.505 7.49999 22.5829 11.1116 20.4795 13.4676L19.06 12.0496C20.3901 10.5255 20.3201 8.13546 18.827 6.64569C17.3244 5.14651 14.9076 5.0826 13.337 6.49247L12.0019 7.69083L10.6661 6.4934C9.09098 5.08156 6.67506 5.14367 5.17157 6.64716C3.68183 8.1369 3.60704 10.5229 4.97993 12.0988L13.412 20.5446L11.9999 21.9606L3.52138 13.4686C1.41705 11.1126 1.49571 7.4946 3.75736 5.23295C6.02157 2.96874 9.64519 2.89246 12.001 5.00412C14.35 2.89559 17.98 2.96559 20.2426 5.23295Z" fill="#0067BC"/>
</g>
</svg>
