<svg width="16" height="19" viewBox="0 0 16 19" fill="none" xmlns="http://www.w3.org/2000/svg">
<path d="M6.00043 0.643066H1.42899C0.797808 0.643066 0.286133 1.15474 0.286133 1.78593V6.35736C0.286133 6.98855 0.797808 7.50022 1.42899 7.50022H6.00043C6.63162 7.50022 7.14329 6.98855 7.14329 6.35736V1.78593C7.14329 1.15474 6.63162 0.643066 6.00043 0.643066Z" fill="#0067BC"/>
<path d="M14.8579 0.643066H10.2864C9.65523 0.643066 9.14355 1.15474 9.14355 1.78593V6.35736C9.14355 6.98855 9.65523 7.50022 10.2864 7.50022H14.8579C15.489 7.50022 16.0007 6.98855 16.0007 6.35736V1.78593C16.0007 1.15474 15.489 0.643066 14.8579 0.643066Z" fill="#0067BC"/>
<path d="M6.00043 11.5H1.42899C0.797808 11.5 0.286133 12.0117 0.286133 12.6429V17.2143C0.286133 17.8455 0.797808 18.3572 1.42899 18.3572H6.00043C6.63162 18.3572 7.14329 17.8455 7.14329 17.2143V12.6429C7.14329 12.0117 6.63162 11.5 6.00043 11.5Z" fill="#0067BC"/>
<path d="M14.8579 11.5H10.2864C9.65523 11.5 9.14355 12.0117 9.14355 12.6429V17.2143C9.14355 17.8455 9.65523 18.3572 10.2864 18.3572H14.8579C15.489 18.3572 16.0007 17.8455 16.0007 17.2143V12.6429C16.0007 12.0117 15.489 11.5 14.8579 11.5Z" fill="#0067BC"/>
</svg>
