<svg width="14" height="14" viewBox="0 0 14 14" fill="none" xmlns="http://www.w3.org/2000/svg">
<path d="M6 4.5C5.97917 4.91667 5.83333 5.27083 5.5625 5.5625C5.27083 5.83333 4.91667 5.97917 4.5 6H1.5C1.08333 5.97917 0.729167 5.83333 0.4375 5.5625C0.166667 5.27083 0.0208333 4.91667 0 4.5V1.5C0.0208333 1.08333 0.166667 0.729167 0.4375 0.4375C0.729167 0.166667 1.08333 0.0208333 1.5 0H4.5C4.91667 0.0208333 5.27083 0.166667 5.5625 0.4375C5.83333 0.729167 5.97917 1.08333 6 1.5V4.5ZM6 12.5C5.97917 12.9167 5.83333 13.2708 5.5625 13.5625C5.27083 13.8333 4.91667 13.9792 4.5 14H1.5C1.08333 13.9792 0.729167 13.8333 0.4375 13.5625C0.166667 13.2708 0.0208333 12.9167 0 12.5V9.5C0.0208333 9.08333 0.166667 8.72917 0.4375 8.4375C0.729167 8.16667 1.08333 8.02083 1.5 8H4.5C4.91667 8.02083 5.27083 8.16667 5.5625 8.4375C5.83333 8.72917 5.97917 9.08333 6 9.5V12.5ZM8 1.5C8.02083 1.08333 8.16667 0.729167 8.4375 0.4375C8.72917 0.166667 9.08333 0.0208333 9.5 0H12.5C12.9167 0.0208333 13.2708 0.166667 13.5625 0.4375C13.8333 0.729167 13.9792 1.08333 14 1.5V4.5C13.9792 4.91667 13.8333 5.27083 13.5625 5.5625C13.2708 5.83333 12.9167 5.97917 12.5 6H9.5C9.08333 5.97917 8.72917 5.83333 8.4375 5.5625C8.16667 5.27083 8.02083 4.91667 8 4.5V1.5ZM14 12.5C13.9792 12.9167 13.8333 13.2708 13.5625 13.5625C13.2708 13.8333 12.9167 13.9792 12.5 14H9.5C9.08333 13.9792 8.72917 13.8333 8.4375 13.5625C8.16667 13.2708 8.02083 12.9167 8 12.5V9.5C8.02083 9.08333 8.16667 8.72917 8.4375 8.4375C8.72917 8.16667 9.08333 8.02083 9.5 8H12.5C12.9167 8.02083 13.2708 8.16667 13.5625 8.4375C13.8333 8.72917 13.9792 9.08333 14 9.5V12.5Z" fill="#0067BC"/>
</svg>
