<svg width="16" height="16" viewBox="0 0 16 16" fill="none" xmlns="http://www.w3.org/2000/svg">
<path d="M15.75 8C15.75 9.39583 15.3958 10.6875 14.6875 11.875C14 13.0625 13.0625 14 11.875 14.6875C10.6875 15.3958 9.39583 15.75 8 15.75C6.60417 15.75 5.3125 15.3958 4.125 14.6875C2.9375 14 1.98958 13.0625 1.28125 11.875C0.59375 10.6875 0.25 9.39583 0.25 8C0.25 6.60417 0.59375 5.3125 1.28125 4.125C1.98958 2.9375 2.9375 2 4.125 1.3125C5.3125 0.604167 6.60417 0.25 8 0.25C9.39583 0.25 10.6875 0.604167 11.875 1.3125C13.0625 2 14 2.9375 14.6875 4.125C15.3958 5.3125 15.75 6.60417 15.75 8ZM14.4375 10C14.8542 8.66667 14.8542 7.33333 14.4375 6H11.3438C11.5521 7.33333 11.5521 8.66667 11.3438 10H14.4375ZM8 14.6875C8.97917 13.8125 9.67708 12.5833 10.0938 11H5.90625C6.32292 12.5833 7.02083 13.8125 8 14.6875ZM5.65625 10H10.3438C10.5729 8.66667 10.5729 7.33333 10.3438 6H5.65625C5.42708 7.33333 5.42708 8.66667 5.65625 10ZM8 1.3125C7.02083 2.1875 6.32292 3.41667 5.90625 5H10.0938C9.67708 3.41667 8.97917 2.1875 8 1.3125ZM14.0625 5C13.6042 4.08333 12.9688 3.3125 12.1562 2.6875C11.3646 2.0625 10.4688 1.63542 9.46875 1.40625C10.2396 2.38542 10.8021 3.58333 11.1562 5H14.0625ZM6.53125 1.40625C5.53125 1.63542 4.625 2.0625 3.8125 2.6875C3.02083 3.3125 2.39583 4.08333 1.9375 5H4.84375C5.19792 3.58333 5.76042 2.38542 6.53125 1.40625ZM1.5625 6C1.14583 7.33333 1.14583 8.66667 1.5625 10H4.65625C4.44792 8.66667 4.44792 7.33333 4.65625 6H1.5625ZM1.9375 11C2.39583 11.9167 3.02083 12.6875 3.8125 13.3125C4.625 13.9375 5.53125 14.3646 6.53125 14.5938C5.76042 13.6146 5.20833 12.4167 4.875 11H1.9375ZM9.46875 14.5938C10.4688 14.3646 11.3646 13.9375 12.1562 13.3125C12.9688 12.6875 13.6042 11.9167 14.0625 11H11.125C10.7917 12.4167 10.2396 13.6146 9.46875 14.5938Z" fill="#0D5EF4"/>
</svg>
