<svg width="21" height="17" viewBox="0 0 21 17" fill="none" xmlns="http://www.w3.org/2000/svg">
<path id="Vector" fill-rule="evenodd" clip-rule="evenodd" d="M6 14.9C6 14.6878 6.07902 14.4843 6.21967 14.3343C6.36032 14.1843 6.55109 14.1 6.75 14.1H20.25C20.4489 14.1 20.6397 14.1843 20.7803 14.3343C20.921 14.4843 21 14.6878 21 14.9C21 15.1122 20.921 15.3157 20.7803 15.4657C20.6397 15.6157 20.4489 15.7 20.25 15.7H6.75C6.55109 15.7 6.36032 15.6157 6.21967 15.4657C6.07902 15.3157 6 15.1122 6 14.9ZM6 8.5C6 8.28783 6.07902 8.08434 6.21967 7.93431C6.36032 7.78429 6.55109 7.7 6.75 7.7H20.25C20.4489 7.7 20.6397 7.78429 20.7803 7.93431C20.921 8.08434 21 8.28783 21 8.5C21 8.71217 20.921 8.91566 20.7803 9.06569C20.6397 9.21571 20.4489 9.3 20.25 9.3H6.75C6.55109 9.3 6.36032 9.21571 6.21967 9.06569C6.07902 8.91566 6 8.71217 6 8.5ZM6 2.1C6 1.88783 6.07902 1.68434 6.21967 1.53431C6.36032 1.38429 6.55109 1.3 6.75 1.3H20.25C20.4489 1.3 20.6397 1.38429 20.7803 1.53431C20.921 1.68434 21 1.88783 21 2.1C21 2.31217 20.921 2.51566 20.7803 2.66569C20.6397 2.81571 20.4489 2.9 20.25 2.9H6.75C6.55109 2.9 6.36032 2.81571 6.21967 2.66569C6.07902 2.51566 6 2.31217 6 2.1ZM1.5 3.7C1.89782 3.7 2.27936 3.53143 2.56066 3.23137C2.84196 2.93131 3 2.52435 3 2.1C3 1.67565 2.84196 1.26869 2.56066 0.968629C2.27936 0.668571 1.89782 0.5 1.5 0.5C1.10218 0.5 0.720644 0.668571 0.43934 0.968629C0.158035 1.26869 0 1.67565 0 2.1C0 2.52435 0.158035 2.93131 0.43934 3.23137C0.720644 3.53143 1.10218 3.7 1.5 3.7ZM1.5 10.1C1.89782 10.1 2.27936 9.93143 2.56066 9.63137C2.84196 9.33131 3 8.92435 3 8.5C3 8.07565 2.84196 7.66869 2.56066 7.36863C2.27936 7.06857 1.89782 6.9 1.5 6.9C1.10218 6.9 0.720644 7.06857 0.43934 7.36863C0.158035 7.66869 0 8.07565 0 8.5C0 8.92435 0.158035 9.33131 0.43934 9.63137C0.720644 9.93143 1.10218 10.1 1.5 10.1ZM1.5 16.5C1.89782 16.5 2.27936 16.3314 2.56066 16.0314C2.84196 15.7313 3 15.3243 3 14.9C3 14.4757 2.84196 14.0687 2.56066 13.7686C2.27936 13.4686 1.89782 13.3 1.5 13.3C1.10218 13.3 0.720644 13.4686 0.43934 13.7686C0.158035 14.0687 0 14.4757 0 14.9C0 15.3243 0.158035 15.7313 0.43934 16.0314C0.720644 16.3314 1.10218 16.5 1.5 16.5Z" fill="#0F2239"/>
</svg>
