<svg width="81" height="80" viewBox="0 0 81 80" fill="none" xmlns="http://www.w3.org/2000/svg">
<g filter="url(#filter0_b_35_1842)">
<circle cx="40.3516" cy="39.9995" r="40" fill="#0067BC"/>
<circle cx="40.3516" cy="39.9995" r="38" stroke="white" stroke-width="4"/>
</g>
<path fill-rule="evenodd" clip-rule="evenodd" d="M37.5428 24.5714C34.7985 25.5574 32.7816 27.1632 31.3167 29.5293C30.563 30.7463 29.9048 31.402 29.5673 31.2717C29.2696 31.1571 28.1478 31.2521 27.0745 31.4835C24.5407 32.0289 21.8043 34.3974 20.8703 36.853C19.5001 40.4548 20.9392 45.0796 24.0687 47.1296L25.4417 48.0294L25.5563 51.8251C25.6832 56.0315 25.4604 55.8089 28.7197 54.9771C30.2438 54.5879 30.8997 54.6111 32.4008 55.1073C34.0284 55.6451 34.4252 55.6455 36.0481 55.1089C37.6689 54.5735 38.1051 54.5731 40.0173 55.1077C41.1988 55.4378 42.2598 55.6136 42.3748 55.4977C42.4898 55.3822 42.5841 53.7896 42.5841 51.9581V48.6287H44.5974C45.8382 48.6287 46.5164 48.7821 46.3647 49.0283C46.2294 49.248 45.5028 49.4278 44.7494 49.4278C43.9038 49.4278 43.38 49.6228 43.38 49.938C43.38 50.2185 44.6336 51.6972 46.1661 53.2239L48.9523 55.9995L51.9166 53.0429C53.5475 51.4167 54.7903 49.9384 54.6785 49.757C54.567 49.576 53.8599 49.4278 53.1065 49.4278C52.3532 49.4278 51.7372 49.248 51.7372 49.0283C51.7372 48.8085 52.28 48.6287 52.9438 48.6287C54.3585 48.6287 56.7626 47.6882 57.8339 46.7157C59.2562 45.4244 60.1413 43.0559 60.3056 40.1028C60.3999 38.4072 60.3458 37.73 60.1731 38.4403L59.8818 39.639L59.3593 38.38C58.6406 36.6492 57.3659 35.5401 55.1051 34.6786C53.4098 34.0322 53.1324 33.7553 52.6951 32.2682C51.74 29.0203 49.1409 26.2531 45.6034 24.7176C43.5396 23.8218 39.8171 23.7539 37.5428 24.5714ZM36.8109 26.3945C34.7638 27.3518 32.7219 29.3487 31.6375 31.4535C31.0887 32.5191 30.8245 32.647 29.1689 32.647C24.1718 32.647 20.626 37.123 21.8903 41.8357C22.3081 43.3943 24.3899 46.2315 25.1153 46.2315C25.3115 46.2315 25.4719 45.5331 25.4719 44.6792C25.4719 43.4307 25.684 42.9876 26.5548 42.4146C28.0678 41.4193 30.9375 41.2148 32.7462 41.9735C34.0527 42.5217 34.3894 42.5265 35.6071 42.0159C37.4333 41.2495 39.4518 41.2839 41.1777 42.1102C42.5519 42.7682 42.5841 42.8377 42.5841 45.1287V47.474L44.4744 47.3522L46.3647 47.2303L46.4781 43.1162L46.592 39.0021L49.0649 39.1208L51.5382 39.2394L51.6516 43.3348C51.777 47.8612 51.7519 47.8284 54.4954 47.0385C57.5068 46.1715 59.3346 42.9416 58.5239 39.9195C57.9783 37.8846 56.2277 36.2908 53.8762 35.6887C52.0953 35.2324 51.923 35.0806 51.7125 33.7793C51.4009 31.8547 49.6109 28.8924 48.0258 27.6786C44.821 25.2246 40.3969 24.718 36.8109 26.3945ZM20.4178 39.8387C20.4178 41.0474 20.4923 41.542 20.5834 40.9375C20.6745 40.333 20.6745 39.3445 20.5834 38.74C20.4923 38.1355 20.4178 38.6301 20.4178 39.8387ZM47.6704 45.5147C47.5622 50.2317 47.5288 50.3991 46.6437 50.6089C45.759 50.819 45.7809 50.8774 47.3039 52.3705C48.8667 53.9019 48.8874 53.9087 49.8333 53.1923C50.3582 52.7948 51.0988 52.0548 51.4797 51.5482C52.1475 50.6592 52.1431 50.6264 51.3579 50.6264C50.5807 50.6264 50.5433 50.3979 50.5433 45.6321V40.6378H49.1628H47.7823L47.6704 45.5147ZM28.1581 43.087L27.0637 43.5014V48.562V53.623H30.2474H33.4311V48.7426C33.4311 44.4843 33.3415 43.8142 32.7275 43.4842C31.5384 42.8453 29.3094 42.6515 28.1581 43.087ZM36.3163 43.1338L35.0229 43.5501L35.0233 48.5868V53.623L38.207 53.6338L41.3903 53.645V48.5584V43.4722L39.8979 43.0563C38.172 42.5748 38.0426 42.5776 36.3163 43.1338ZM28.1581 45.4643C26.8325 46.2394 27.4732 46.5543 30.1479 46.4424C33.4677 46.3034 33.3949 46.3293 32.4597 45.6194C31.5758 44.9481 29.188 44.8622 28.1581 45.4643ZM36.1173 45.4643C34.8319 46.2159 35.4034 46.5311 38.0076 46.5063C39.7483 46.49 40.5943 46.3241 40.5943 45.9997C40.5943 45.0348 37.4879 44.6628 36.1173 45.4643ZM27.9592 48.0941C27.6858 48.2052 27.4617 48.5224 27.4617 48.7997C27.4617 49.1653 28.1987 49.2764 30.1479 49.2037C31.6251 49.1489 32.901 49.087 32.9822 49.0662C33.0638 49.0454 32.9078 48.7586 32.6352 48.4289C32.1552 47.848 29.1053 47.6299 27.9592 48.0941ZM35.9183 48.0941C35.6449 48.2052 35.4209 48.5184 35.4209 48.7909C35.4209 49.1369 36.1997 49.2776 38.0076 49.2572C39.6655 49.2384 40.5943 49.0642 40.5943 48.7714C40.5943 48.52 40.311 48.2056 39.9648 48.0722C39.2285 47.7885 36.6382 47.8025 35.9183 48.0941ZM28.346 50.7195C26.827 51.4543 27.5763 51.9661 30.1714 51.9661C32.7892 51.9661 33.3499 51.5398 31.7947 50.7323C30.647 50.1362 29.5601 50.1322 28.346 50.7195ZM36.2829 50.6512C34.664 51.3029 35.5271 51.9353 38.1258 52.0025C39.9429 52.0492 40.5943 51.9262 40.5943 51.5362C40.5943 50.9697 38.9898 50.2105 37.8822 50.2521C37.5133 50.2661 36.7938 50.4458 36.2829 50.6512Z" fill="white"/>
<defs>
<filter id="filter0_b_35_1842" x="-11.6484" y="-12.0005" width="104" height="104" filterUnits="userSpaceOnUse" color-interpolation-filters="sRGB">
<feFlood flood-opacity="0" result="BackgroundImageFix"/>
<feGaussianBlur in="BackgroundImageFix" stdDeviation="6"/>
<feComposite in2="SourceAlpha" operator="in" result="effect1_backgroundBlur_35_1842"/>
<feBlend mode="normal" in="SourceGraphic" in2="effect1_backgroundBlur_35_1842" result="shape"/>
</filter>
</defs>
</svg>
