<svg width="18" height="16" viewBox="0 0 18 16" fill="none" xmlns="http://www.w3.org/2000/svg">
<path d="M15.8438 8C16.4896 8 17.0104 8.25 17.4062 8.75C17.8021 9.22917 18 9.8125 18 10.5C18 11.1875 17.8021 11.7917 17.4062 12.3125C17.0104 12.8125 16.5 13.0625 15.875 13.0625C15.5833 13.0625 15.2812 12.9896 14.9688 12.8438C14.7604 12.7604 14.4896 12.6146 14.1562 12.4062C13.8438 12.1771 13.625 12.0417 13.5 12C13.2708 11.9375 13.1042 11.9896 13 12.1562C12.75 12.4688 12.6979 13.1042 12.8438 14.0625C12.9271 14.5417 13.0521 15.0625 13.2188 15.625V15.6562C12.6771 15.6562 11.8958 15.7083 10.875 15.8125C9.91667 15.9167 9.23958 15.9583 8.84375 15.9375C8.19792 15.8958 7.71875 15.7396 7.40625 15.4688C7.09375 15.1979 6.9375 14.8438 6.9375 14.4062C6.9375 14.0938 7 13.8125 7.125 13.5625C7.20833 13.4167 7.34375 13.2188 7.53125 12.9688C7.69792 12.7812 7.80208 12.6354 7.84375 12.5312C7.94792 12.3646 8 12.1875 8 12C8 11.75 7.89583 11.5417 7.6875 11.375C7.41667 11.125 7.01042 11 6.46875 11C6.03125 11 5.6875 11.0729 5.4375 11.2188C5.14583 11.3854 5 11.6458 5 12C5 12.2292 5.05208 12.4583 5.15625 12.6875C5.21875 12.8125 5.33333 12.9896 5.5 13.2188C5.66667 13.4479 5.78125 13.6146 5.84375 13.7188C5.94792 13.9062 6 14.1042 6 14.3125C6 14.9167 5.71875 15.3646 5.15625 15.6562C4.69792 15.8854 4.08333 16 3.3125 16C2.375 16 1.27083 15.8438 0 15.5312V4.75C0.9375 4.97917 1.77083 5.125 2.5 5.1875C3.66667 5.3125 4.4375 5.21875 4.8125 4.90625C4.97917 4.80208 5.04167 4.66667 5 4.5C4.97917 4.39583 4.88542 4.21875 4.71875 3.96875C4.51042 3.67708 4.36458 3.42708 4.28125 3.21875C4.13542 2.88542 4.0625 2.53125 4.0625 2.15625C4.0625 1.51042 4.33333 0.979167 4.875 0.5625C5.375 0.1875 5.98958 0 6.71875 0C7.38542 0 7.9375 0.197917 8.375 0.59375C8.83333 0.96875 9.0625 1.46875 9.0625 2.09375C9.0625 2.40625 8.98958 2.72917 8.84375 3.0625C8.73958 3.25 8.58333 3.51042 8.375 3.84375C8.1875 4.11458 8.07292 4.30208 8.03125 4.40625C7.96875 4.57292 7.98958 4.70833 8.09375 4.8125C8.44792 5.10417 9.27083 5.19792 10.5625 5.09375C11.3125 5.05208 12.1979 4.9375 13.2188 4.75C12.7188 6.95833 12.6771 8.33333 13.0938 8.875C13.1979 9 13.3229 9.03125 13.4688 8.96875C13.5729 8.94792 13.7396 8.85417 13.9688 8.6875C14.2812 8.47917 14.5417 8.33333 14.75 8.25C15.0833 8.08333 15.4479 8 15.8438 8ZM15.875 12.0625C16.1458 12.0625 16.3958 11.9375 16.625 11.6875C16.875 11.3958 17 11 17 10.5C17 10.0833 16.8958 9.72917 16.6875 9.4375C16.4792 9.14583 16.1979 9 15.8438 9C15.5938 9 15.3542 9.05208 15.125 9.15625C14.9792 9.23958 14.7812 9.36458 14.5312 9.53125C14.3021 9.69792 14.125 9.80208 14 9.84375C13.7917 9.94792 13.5938 10 13.4062 10C12.6354 10 12.1458 9.54167 11.9375 8.625C11.7708 7.9375 11.7708 7.05208 11.9375 5.96875C10.6458 6.13542 9.60417 6.16667 8.8125 6.0625C7.60417 5.89583 7 5.41667 7 4.625C7 4.33333 7.0625 4.05208 7.1875 3.78125C7.27083 3.63542 7.40625 3.42708 7.59375 3.15625C7.76042 2.94792 7.875 2.78125 7.9375 2.65625C8.02083 2.46875 8.0625 2.28125 8.0625 2.09375C8.0625 1.71875 7.91667 1.4375 7.625 1.25C7.375 1.08333 7.07292 1 6.71875 1C6.28125 1 5.90625 1.09375 5.59375 1.28125C5.23958 1.51042 5.0625 1.80208 5.0625 2.15625C5.0625 2.38542 5.11458 2.625 5.21875 2.875C5.28125 3.02083 5.38542 3.20833 5.53125 3.4375C5.69792 3.66667 5.8125 3.84375 5.875 3.96875C5.95833 4.15625 6 4.34375 6 4.53125C6 5.44792 5.41667 5.98958 4.25 6.15625C3.39583 6.30208 2.3125 6.25 1 6V14.75C1.875 14.9167 2.67708 15 3.40625 15C4.46875 15 5 14.7708 5 14.3125C5 14.2292 4.90625 14.0625 4.71875 13.8125C4.23958 13.1875 4 12.5833 4 12C4 11.3958 4.21875 10.9167 4.65625 10.5625C5.09375 10.1875 5.6875 10 6.4375 10C7.20833 10 7.82292 10.1875 8.28125 10.5625C8.76042 10.9375 9 11.4167 9 12C9 12.3125 8.91667 12.625 8.75 12.9375C8.66667 13.1042 8.52083 13.3333 8.3125 13.625C8.10417 13.9167 7.97917 14.125 7.9375 14.25C7.875 14.4167 7.90625 14.5625 8.03125 14.6875C8.23958 14.875 8.67708 14.9583 9.34375 14.9375C9.73958 14.9375 10.3542 14.8854 11.1875 14.7812L11.9375 14.6875C11.75 13.6875 11.7292 12.8646 11.875 12.2188C12.0833 11.4062 12.5729 11 13.3438 11C13.6354 11 13.9167 11.0625 14.1875 11.1875C14.3333 11.2708 14.5417 11.4062 14.8125 11.5938C15.0208 11.7396 15.1875 11.8438 15.3125 11.9062C15.5 12.0104 15.6875 12.0625 15.875 12.0625Z" fill="#0D5EF4"/>
</svg>
