<svg width="13" height="15" viewBox="0 0 13 15" fill="none" xmlns="http://www.w3.org/2000/svg">
<path d="M9.625 9C8.91406 9 8.28516 9.27344 7.79297 9.73828L5.11328 8.04297C5.27734 7.55078 5.27734 6.97656 5.11328 6.48438L7.79297 4.78906C8.28516 5.22656 8.91406 5.5 9.625 5.5C11.0742 5.5 12.25 4.32422 12.25 2.875C12.25 1.42578 11.0742 0.25 9.625 0.25C8.17578 0.25 7 1.42578 7 2.875C7 3.14844 7.02734 3.42188 7.10938 3.66797L4.42969 5.36328C3.9375 4.89844 3.30859 4.625 2.625 4.625C1.17578 4.625 0 5.80078 0 7.25C0 8.69922 1.17578 9.875 2.625 9.875C3.30859 9.875 3.9375 9.60156 4.42969 9.16406L7.10938 10.8594C7.02734 11.1055 7 11.3789 7 11.625C7 13.0742 8.17578 14.25 9.625 14.25C11.0742 14.25 12.25 13.0742 12.25 11.625C12.25 10.1758 11.0742 9 9.625 9ZM9.625 1.5625C10.3359 1.5625 10.9375 2.16406 10.9375 2.875C10.9375 3.61328 10.3359 4.1875 9.625 4.1875C8.88672 4.1875 8.3125 3.61328 8.3125 2.875C8.3125 2.16406 8.88672 1.5625 9.625 1.5625ZM2.625 8.5625C1.88672 8.5625 1.3125 7.98828 1.3125 7.25C1.3125 6.53906 1.88672 5.9375 2.625 5.9375C3.33594 5.9375 3.9375 6.53906 3.9375 7.25C3.9375 7.98828 3.33594 8.5625 2.625 8.5625ZM9.625 12.9375C8.88672 12.9375 8.3125 12.3633 8.3125 11.625C8.3125 10.9141 8.88672 10.3125 9.625 10.3125C10.3359 10.3125 10.9375 10.9141 10.9375 11.625C10.9375 12.3633 10.3359 12.9375 9.625 12.9375Z" fill="#0D5EF4"/>
</svg>
