<svg width="18" height="15" viewBox="0 0 18 15" fill="none" xmlns="http://www.w3.org/2000/svg">
<path d="M8.75 9.5C7.94792 9.48177 7.27344 9.20833 6.72656 8.67969C6.19792 8.13281 5.93359 7.45833 5.93359 6.65625C5.95182 5.85417 6.22526 5.17969 6.75391 4.63281C7.28255 4.10417 7.94792 3.83073 8.75 3.8125C9.53385 3.83073 10.1992 4.10417 10.7461 4.63281C11.2747 5.17969 11.5482 5.85417 11.5664 6.65625C11.5482 7.45833 11.2747 8.13281 10.7461 8.67969C10.2174 9.20833 9.55208 9.48177 8.75 9.5ZM8.75 4.6875C8.1849 4.70573 7.72005 4.89714 7.35547 5.26172C6.99089 5.6263 6.79948 6.09115 6.78125 6.65625C6.79948 7.22135 6.99089 7.6862 7.35547 8.05078C7.72005 8.41536 8.1849 8.60677 8.75 8.625C9.29688 8.60677 9.76172 8.41536 10.1445 8.05078C10.5091 7.6862 10.7005 7.22135 10.7188 6.65625C10.7005 6.09115 10.5091 5.6263 10.1445 5.26172C9.76172 4.89714 9.29688 4.70573 8.75 4.6875ZM10.1172 10.375C11.2109 10.3932 12.1224 10.7487 12.8516 11.4414C13.5807 12.1341 13.9635 12.9909 14 14.0117C14 14.2305 13.9271 14.4036 13.7812 14.5312C13.6354 14.6771 13.4531 14.75 13.2344 14.75H4.26562C4.04688 14.75 3.86458 14.6771 3.71875 14.5312C3.57292 14.4036 3.5 14.2305 3.5 14.0117C3.53646 12.9909 3.91927 12.1341 4.64844 11.4414C5.3776 10.7487 6.28906 10.3932 7.38281 10.375H10.1172ZM4.375 13.875H13.0977C13.043 13.1276 12.7422 12.5078 12.1953 12.0156C11.6302 11.5234 10.9375 11.2682 10.1172 11.25H7.35547C6.55339 11.2682 5.86979 11.5234 5.30469 12.0156C4.75781 12.5078 4.44792 13.1276 4.375 13.875ZM14 5.125C13.3802 5.10677 12.8607 4.89714 12.4414 4.49609C12.0404 4.07682 11.8307 3.55729 11.8125 2.9375C11.8307 2.31771 12.0404 1.79818 12.4414 1.37891C12.8607 0.977865 13.3802 0.768229 14 0.75C14.6198 0.768229 15.1393 0.977865 15.5586 1.37891C15.9596 1.79818 16.1693 2.31771 16.1875 2.9375C16.1693 3.55729 15.9596 4.07682 15.5586 4.49609C15.1393 4.89714 14.6198 5.10677 14 5.125ZM14 1.625C13.6354 1.64323 13.3255 1.77083 13.0703 2.00781C12.8333 2.26302 12.7057 2.57292 12.6875 2.9375C12.7057 3.30208 12.8333 3.61198 13.0703 3.86719C13.3255 4.10417 13.6354 4.23177 14 4.25C14.3646 4.23177 14.6745 4.10417 14.9297 3.86719C15.1667 3.61198 15.2943 3.30208 15.3125 2.9375C15.2943 2.57292 15.1667 2.26302 14.9297 2.00781C14.6745 1.77083 14.3646 1.64323 14 1.625ZM3.5 5.125C2.88021 5.10677 2.36068 4.89714 1.94141 4.49609C1.54036 4.07682 1.33073 3.55729 1.3125 2.9375C1.33073 2.31771 1.54036 1.79818 1.94141 1.37891C2.36068 0.977865 2.88021 0.768229 3.5 0.75C4.11979 0.768229 4.63932 0.977865 5.05859 1.37891C5.45964 1.79818 5.66927 2.31771 5.6875 2.9375C5.66927 3.55729 5.45964 4.07682 5.05859 4.49609C4.63932 4.89714 4.11979 5.10677 3.5 5.125ZM3.5 1.625C3.13542 1.64323 2.82552 1.77083 2.57031 2.00781C2.33333 2.26302 2.20573 2.57292 2.1875 2.9375C2.20573 3.30208 2.33333 3.61198 2.57031 3.86719C2.82552 4.10417 3.13542 4.23177 3.5 4.25C3.86458 4.23177 4.17448 4.10417 4.42969 3.86719C4.66667 3.61198 4.79427 3.30208 4.8125 2.9375C4.79427 2.57292 4.66667 2.26302 4.42969 2.00781C4.17448 1.77083 3.86458 1.64323 3.5 1.625ZM15.3398 6C15.9596 6.01823 16.4701 6.23698 16.8711 6.65625C17.2721 7.09375 17.4818 7.63151 17.5 8.26953V8.625C17.4818 8.89844 17.3359 9.04427 17.0625 9.0625C16.7891 9.04427 16.6432 8.89844 16.625 8.625V8.26953C16.6068 7.86849 16.4792 7.54036 16.2422 7.28516C15.987 7.02995 15.6862 6.89323 15.3398 6.875H13.5625C13.3802 6.875 13.207 6.91146 13.043 6.98438C12.7878 7.07552 12.5964 7.01172 12.4688 6.79297C12.3776 6.53776 12.4505 6.33724 12.6875 6.19141C12.9609 6.0638 13.2526 6 13.5625 6H15.3398ZM4.45703 6.98438C4.29297 6.91146 4.11979 6.875 3.9375 6.875H2.16016C1.79557 6.89323 1.49479 7.02995 1.25781 7.28516C1.02083 7.54036 0.893229 7.86849 0.875 8.26953V8.625C0.856771 8.89844 0.710938 9.04427 0.4375 9.0625C0.164062 9.04427 0.0182292 8.89844 0 8.625V8.26953C0.0182292 7.63151 0.227865 7.09375 0.628906 6.65625C1.02995 6.23698 1.54036 6.01823 2.16016 6H3.9375C4.2474 6 4.54818 6.0638 4.83984 6.19141C5.05859 6.33724 5.1224 6.53776 5.03125 6.79297C4.90365 7.01172 4.71224 7.07552 4.45703 6.98438Z" fill="#0D5EF4"/>
</svg>
