<svg width="16" height="16" viewBox="0 0 16 16" fill="none" xmlns="http://www.w3.org/2000/svg">
<path d="M15.5625 7.0625C15.8542 7.35417 16 7.70833 16 8.125C16 8.54167 15.8542 8.89583 15.5625 9.1875L9.1875 15.5625C8.89583 15.8542 8.54167 16 8.125 16C7.70833 16 7.35417 15.8542 7.0625 15.5625L0.4375 8.9375C0.145833 8.64583 0 8.29167 0 7.875V1.5C0 1.08333 0.145833 0.729167 0.4375 0.4375C0.729167 0.145833 1.08333 0 1.5 0H7.875C8.29167 0 8.64583 0.145833 8.9375 0.4375L15.5625 7.0625ZM14.8438 8.46875C14.9479 8.38542 15 8.27083 15 8.125C15 7.97917 14.9479 7.86458 14.8438 7.78125L8.21875 1.15625C8.13542 1.05208 8.02083 1 7.875 1H1.5C1.35417 1 1.22917 1.05208 1.125 1.15625C1.04167 1.23958 1 1.35417 1 1.5V7.875C1 8.02083 1.05208 8.13542 1.15625 8.21875L7.78125 14.8438C7.86458 14.9479 7.97917 15 8.125 15C8.27083 15 8.38542 14.9479 8.46875 14.8438L14.8438 8.46875ZM4.5 3.875C4.33333 3.875 4.1875 3.9375 4.0625 4.0625C3.9375 4.1875 3.875 4.33333 3.875 4.5C3.875 4.66667 3.9375 4.8125 4.0625 4.9375C4.1875 5.0625 4.33333 5.125 4.5 5.125C4.66667 5.125 4.8125 5.0625 4.9375 4.9375C5.0625 4.8125 5.125 4.66667 5.125 4.5C5.125 4.33333 5.0625 4.1875 4.9375 4.0625C4.8125 3.9375 4.66667 3.875 4.5 3.875ZM4.5 3C4.91667 3 5.27083 3.14583 5.5625 3.4375C5.85417 3.72917 6 4.08333 6 4.5C6 4.91667 5.85417 5.27083 5.5625 5.5625C5.27083 5.85417 4.91667 6 4.5 6C4.08333 6 3.72917 5.85417 3.4375 5.5625C3.14583 5.27083 3 4.91667 3 4.5C3 4.08333 3.14583 3.72917 3.4375 3.4375C3.72917 3.14583 4.08333 3 4.5 3Z" fill="#0D5EF4"/>
</svg>
